<mxfile host="65bd71144e">
    <diagram id="ExaPpC2nfLLVyYAx660A" name="Page-1">
        <mxGraphModel dx="1108" dy="778" grid="1" gridSize="10" guides="1" tooltips="1" connect="1" arrows="1" fold="1" page="1" pageScale="1" pageWidth="850" pageHeight="1100" math="0" shadow="0">
            <root>
                <mxCell id="0"/>
                <mxCell id="1" parent="0"/>
                <mxCell id="53" value="..." style="text;html=1;strokeColor=none;fillColor=none;align=center;verticalAlign=middle;whiteSpace=wrap;rounded=0;shadow=1;labelBackgroundColor=none;fontColor=#000000;" parent="1" vertex="1">
                    <mxGeometry x="725" y="310" width="40" height="20" as="geometry"/>
                </mxCell>
                <mxCell id="75" style="edgeStyle=orthogonalEdgeStyle;rounded=1;orthogonalLoop=1;jettySize=auto;html=1;exitX=1;exitY=0.75;exitDx=0;exitDy=0;fontColor=#000000;endArrow=open;endFill=0;endSize=20;entryX=0;entryY=0.75;entryDx=0;entryDy=0;" parent="1" source="34" target="47" edge="1">
                    <mxGeometry relative="1" as="geometry">
                        <Array as="points">
                            <mxPoint x="345" y="213"/>
                            <mxPoint x="345" y="353"/>
                            <mxPoint x="390" y="353"/>
                        </Array>
                        <mxPoint x="295" y="302.5" as="sourcePoint"/>
                        <mxPoint x="335" y="350" as="targetPoint"/>
                    </mxGeometry>
                </mxCell>
                <mxCell id="37" value="..." style="text;html=1;strokeColor=none;fillColor=none;align=center;verticalAlign=middle;whiteSpace=wrap;rounded=0;shadow=1;labelBackgroundColor=none;fontColor=#000000;" parent="1" vertex="1">
                    <mxGeometry x="455" y="340" width="40" height="20" as="geometry"/>
                </mxCell>
                <mxCell id="42" value="struct lock" style="rounded=1;whiteSpace=wrap;html=1;arcSize=4;verticalAlign=top;fillColor=#0050ef;strokeColor=#001DBC;fontColor=#ffffff;shadow=1;" parent="1" vertex="1">
                    <mxGeometry x="385" y="140" width="200" height="310" as="geometry"/>
                </mxCell>
                <mxCell id="43" value="semaphore sempahore" style="rounded=1;whiteSpace=wrap;html=1;arcSize=20;fillColor=#1ba1e2;strokeColor=#006EAF;shadow=1;labelBackgroundColor=none;fontColor=#ffffff;" parent="1" vertex="1">
                    <mxGeometry x="390" y="210" width="190" height="30" as="geometry"/>
                </mxCell>
                <mxCell id="44" value="thread *holder" style="rounded=1;whiteSpace=wrap;html=1;arcSize=20;fillColor=#1ba1e2;strokeColor=#006EAF;fontColor=#ffffff;shadow=1;" parent="1" vertex="1">
                    <mxGeometry x="390" y="170" width="190" height="30" as="geometry"/>
                </mxCell>
                <mxCell id="45" value="int8_t priority" style="rounded=1;whiteSpace=wrap;html=1;arcSize=20;fillColor=#1ba1e2;strokeColor=#006EAF;shadow=1;labelBackgroundColor=none;fontColor=#ffffff;" parent="1" vertex="1">
                    <mxGeometry x="390" y="250" width="190" height="30" as="geometry"/>
                </mxCell>
                <mxCell id="46" value="thread *donee" style="rounded=1;whiteSpace=wrap;html=1;arcSize=20;fillColor=#1ba1e2;strokeColor=#006EAF;shadow=1;labelBackgroundColor=none;fontColor=#ffffff;" parent="1" vertex="1">
                    <mxGeometry x="390" y="290" width="190" height="30" as="geometry"/>
                </mxCell>
                <mxCell id="47" value="struct list_elem donorelem" style="rounded=1;whiteSpace=wrap;html=1;arcSize=20;fillColor=#1ba1e2;strokeColor=#006EAF;shadow=1;labelBackgroundColor=none;fontColor=#ffffff;" parent="1" vertex="1">
                    <mxGeometry x="390" y="330" width="190" height="30" as="geometry"/>
                </mxCell>
                <mxCell id="48" value="struct semaphore donors_guard" style="rounded=1;whiteSpace=wrap;html=1;arcSize=20;fillColor=#1ba1e2;strokeColor=#006EAF;shadow=1;labelBackgroundColor=none;fontColor=#ffffff;" parent="1" vertex="1">
                    <mxGeometry x="390" y="410" width="190" height="30" as="geometry"/>
                </mxCell>
                <mxCell id="51" value="struct list donors" style="rounded=1;whiteSpace=wrap;html=1;arcSize=20;fillColor=#1ba1e2;strokeColor=#006EAF;shadow=1;labelBackgroundColor=none;fontColor=#ffffff;" parent="1" vertex="1">
                    <mxGeometry x="390" y="370" width="190" height="30" as="geometry"/>
                </mxCell>
                <mxCell id="77" style="edgeStyle=orthogonalEdgeStyle;rounded=1;orthogonalLoop=1;jettySize=auto;html=1;exitX=1;exitY=0.75;exitDx=0;exitDy=0;fontColor=#000000;endArrow=open;endFill=0;endSize=20;entryX=0;entryY=0.75;entryDx=0;entryDy=0;" parent="1" source="47" target="59" edge="1">
                    <mxGeometry relative="1" as="geometry">
                        <Array as="points">
                            <mxPoint x="625" y="353"/>
                            <mxPoint x="625" y="323"/>
                            <mxPoint x="670" y="323"/>
                        </Array>
                        <mxPoint x="300.0000000000001" y="222.5" as="sourcePoint"/>
                        <mxPoint x="400" y="362.5" as="targetPoint"/>
                    </mxGeometry>
                </mxCell>
                <mxCell id="79" value="&lt;font style=&quot;font-size: 40px&quot;&gt;...&lt;/font&gt;" style="text;html=1;strokeColor=none;fillColor=none;align=center;verticalAlign=bottom;whiteSpace=wrap;rounded=0;shadow=1;labelBackgroundColor=none;fontColor=#000000;" parent="1" vertex="1">
                    <mxGeometry x="795" y="210" width="40" height="30" as="geometry"/>
                </mxCell>
                <mxCell id="83" style="edgeStyle=orthogonalEdgeStyle;rounded=1;orthogonalLoop=1;jettySize=auto;html=1;exitX=0;exitY=0.5;exitDx=0;exitDy=0;fontColor=#000000;endArrow=open;endFill=0;endSize=20;entryX=1;entryY=0.25;entryDx=0;entryDy=0;" parent="1" source="79" target="34" edge="1">
                    <mxGeometry relative="1" as="geometry">
                        <Array as="points">
                            <mxPoint x="645" y="225"/>
                            <mxPoint x="645" y="100"/>
                            <mxPoint x="345" y="100"/>
                            <mxPoint x="345" y="198"/>
                        </Array>
                        <mxPoint x="1049.9999999999998" y="362.5" as="sourcePoint"/>
                        <mxPoint x="1024.9999999999998" y="235" as="targetPoint"/>
                    </mxGeometry>
                </mxCell>
                <mxCell id="94" value="..." style="text;html=1;strokeColor=none;fillColor=none;align=center;verticalAlign=middle;whiteSpace=wrap;rounded=0;shadow=1;labelBackgroundColor=none;fontColor=#000000;" parent="1" vertex="1">
                    <mxGeometry x="735" y="490" width="40" height="20" as="geometry"/>
                </mxCell>
                <mxCell id="101" style="edgeStyle=orthogonalEdgeStyle;rounded=1;orthogonalLoop=1;jettySize=auto;html=1;exitX=1;exitY=0.75;exitDx=0;exitDy=0;fontColor=#000000;endArrow=open;endFill=0;endSize=20;entryX=0;entryY=0.75;entryDx=0;entryDy=0;" parent="1" source="51" target="97" edge="1">
                    <mxGeometry relative="1" as="geometry">
                        <Array as="points">
                            <mxPoint x="625" y="393"/>
                            <mxPoint x="625" y="503"/>
                        </Array>
                        <mxPoint x="605" y="449.17" as="sourcePoint"/>
                        <mxPoint x="695" y="449.17" as="targetPoint"/>
                    </mxGeometry>
                </mxCell>
                <mxCell id="102" value="..." style="text;html=1;strokeColor=none;fillColor=none;align=center;verticalAlign=middle;whiteSpace=wrap;rounded=0;shadow=1;labelBackgroundColor=none;fontColor=#000000;" parent="1" vertex="1">
                    <mxGeometry x="965" y="490" width="40" height="20" as="geometry"/>
                </mxCell>
                <mxCell id="110" value="&lt;font style=&quot;font-size: 40px&quot;&gt;...&lt;/font&gt;" style="text;html=1;strokeColor=none;fillColor=none;align=center;verticalAlign=bottom;whiteSpace=wrap;rounded=0;shadow=1;labelBackgroundColor=none;fontColor=#000000;" parent="1" vertex="1">
                    <mxGeometry x="795" y="360" width="40" height="30" as="geometry"/>
                </mxCell>
                <mxCell id="114" style="edgeStyle=orthogonalEdgeStyle;rounded=1;orthogonalLoop=1;jettySize=auto;html=1;exitX=0.003;exitY=0.563;exitDx=0;exitDy=0;fontColor=#000000;endArrow=open;endFill=0;endSize=20;entryX=1;entryY=0.25;entryDx=0;entryDy=0;exitPerimeter=0;" parent="1" source="110" target="51" edge="1">
                    <mxGeometry relative="1" as="geometry">
                        <Array as="points">
                            <mxPoint x="795" y="378"/>
                            <mxPoint x="785" y="378"/>
                        </Array>
                        <mxPoint x="865" y="407.5" as="sourcePoint"/>
                        <mxPoint x="830" y="320" as="targetPoint"/>
                    </mxGeometry>
                </mxCell>
                <mxCell id="115" value="list of locks held by the thread" style="text;html=1;strokeColor=none;fillColor=none;align=center;verticalAlign=middle;whiteSpace=wrap;rounded=0;" parent="1" vertex="1">
                    <mxGeometry y="100" width="100" height="35" as="geometry"/>
                </mxCell>
                <mxCell id="26" value="struct thread" style="rounded=1;whiteSpace=wrap;html=1;arcSize=4;verticalAlign=top;fillColor=#f0a30a;strokeColor=#BD7000;fontColor=#000000;shadow=1;" parent="1" vertex="1">
                    <mxGeometry x="95" width="200" height="280" as="geometry"/>
                </mxCell>
                <mxCell id="30" value="int8_t base_priority" style="rounded=1;whiteSpace=wrap;html=1;arcSize=20;fillColor=#fa6800;strokeColor=#C73500;shadow=1;labelBackgroundColor=none;fontColor=#000000;" parent="1" vertex="1">
                    <mxGeometry x="100" y="70" width="190" height="30" as="geometry"/>
                </mxCell>
                <mxCell id="31" value="int8_t priority" style="rounded=1;whiteSpace=wrap;html=1;arcSize=20;fillColor=#fa6800;strokeColor=#C73500;fontColor=#000000;shadow=1;" parent="1" vertex="1">
                    <mxGeometry x="100" y="30" width="190" height="30" as="geometry"/>
                </mxCell>
                <mxCell id="32" value="struct lock *donee" style="rounded=1;whiteSpace=wrap;html=1;arcSize=20;fillColor=#fa6800;strokeColor=#C73500;shadow=1;labelBackgroundColor=none;fontColor=#000000;" parent="1" vertex="1">
                    <mxGeometry x="100" y="110" width="190" height="30" as="geometry"/>
                </mxCell>
                <mxCell id="33" value="&lt;span&gt;struct list_elem donorelem&lt;/span&gt;" style="rounded=1;whiteSpace=wrap;html=1;arcSize=20;fillColor=#fa6800;strokeColor=#C73500;shadow=1;labelBackgroundColor=none;fontColor=#000000;fontStyle=0" parent="1" vertex="1">
                    <mxGeometry x="100" y="150" width="190" height="30" as="geometry"/>
                </mxCell>
                <mxCell id="34" value="struct list donors" style="rounded=1;whiteSpace=wrap;html=1;arcSize=20;fillColor=#fa6800;strokeColor=#C73500;shadow=1;labelBackgroundColor=none;fontColor=#000000;" parent="1" vertex="1">
                    <mxGeometry x="100" y="190" width="190" height="30" as="geometry"/>
                </mxCell>
                <mxCell id="35" value="struct semaphore donors_guard" style="rounded=1;whiteSpace=wrap;html=1;arcSize=20;fillColor=#fa6800;strokeColor=#C73500;shadow=1;labelBackgroundColor=none;fontColor=#000000;" parent="1" vertex="1">
                    <mxGeometry x="100" y="230" width="190" height="30" as="geometry"/>
                </mxCell>
                <mxCell id="38" value="..." style="text;html=1;strokeColor=none;fillColor=none;align=center;verticalAlign=middle;whiteSpace=wrap;rounded=0;shadow=1;labelBackgroundColor=none;fontColor=#000000;" parent="1" vertex="1">
                    <mxGeometry x="175" y="253" width="40" height="20" as="geometry"/>
                </mxCell>
                <mxCell id="39" value="..." style="text;html=1;strokeColor=none;fillColor=none;align=center;verticalAlign=middle;whiteSpace=wrap;rounded=0;shadow=1;labelBackgroundColor=none;fontColor=#000000;" parent="1" vertex="1">
                    <mxGeometry x="175" y="10" width="40" height="20" as="geometry"/>
                </mxCell>
                <mxCell id="117" style="edgeStyle=orthogonalEdgeStyle;rounded=1;orthogonalLoop=1;jettySize=auto;html=1;exitX=0.5;exitY=1;exitDx=0;exitDy=0;fontColor=#000000;endArrow=open;endFill=0;endSize=20;entryX=0;entryY=0.5;entryDx=0;entryDy=0;" parent="1" source="115" target="33" edge="1">
                    <mxGeometry relative="1" as="geometry">
                        <Array as="points">
                            <mxPoint x="50" y="165"/>
                        </Array>
                        <mxPoint x="-135" y="240" as="sourcePoint"/>
                        <mxPoint x="-45" y="210" as="targetPoint"/>
                    </mxGeometry>
                </mxCell>
                <mxCell id="118" value="list of threads blocked by the lock" style="text;html=1;strokeColor=none;fillColor=none;align=center;verticalAlign=middle;whiteSpace=wrap;rounded=0;" parent="1" vertex="1">
                    <mxGeometry x="255" y="375" width="100" height="20" as="geometry"/>
                </mxCell>
                <mxCell id="119" style="edgeStyle=orthogonalEdgeStyle;rounded=1;orthogonalLoop=1;jettySize=auto;html=1;fontColor=#000000;endArrow=open;endFill=0;endSize=20;entryX=0;entryY=0.5;entryDx=0;entryDy=0;exitX=1;exitY=0.5;exitDx=0;exitDy=0;" parent="1" source="118" target="51" edge="1">
                    <mxGeometry relative="1" as="geometry">
                        <Array as="points"/>
                        <mxPoint x="355" y="385" as="sourcePoint"/>
                        <mxPoint x="389.9999999999998" y="384.83" as="targetPoint"/>
                    </mxGeometry>
                </mxCell>
                <mxCell id="120" value="" style="verticalLabelPosition=bottom;shadow=0;dashed=0;align=center;html=1;verticalAlign=top;strokeWidth=1;shape=mxgraph.mockup.markup.curlyBrace;strokeColor=#999999;rotation=-180;fontColor=#FFFFFF;" parent="1" vertex="1">
                    <mxGeometry x="665" y="540" width="220" height="20" as="geometry"/>
                </mxCell>
                <mxCell id="121" value="threads donating to the thread holding the lock" style="text;html=1;strokeColor=none;fillColor=none;align=center;verticalAlign=middle;whiteSpace=wrap;rounded=0;" parent="1" vertex="1">
                    <mxGeometry x="725" y="580" width="100" height="20" as="geometry"/>
                </mxCell>
                <mxCell id="122" value="" style="verticalLabelPosition=bottom;shadow=0;dashed=0;align=center;html=1;verticalAlign=top;strokeWidth=1;shape=mxgraph.mockup.markup.curlyBrace;strokeColor=#999999;rotation=0;fontColor=#FFFFFF;" parent="1" vertex="1">
                    <mxGeometry x="355" y="60" width="560" height="20" as="geometry"/>
                </mxCell>
                <mxCell id="123" value="locks held by the thread, threads blocked by these locks donate" style="text;html=1;strokeColor=none;fillColor=none;align=center;verticalAlign=middle;whiteSpace=wrap;rounded=0;" parent="1" vertex="1">
                    <mxGeometry x="485" y="30" width="300" height="20" as="geometry"/>
                </mxCell>
                <mxCell id="54" value="struct lock" style="rounded=1;whiteSpace=wrap;html=1;arcSize=11;verticalAlign=top;fillColor=#0050ef;strokeColor=#001DBC;fontColor=#ffffff;shadow=1;" parent="1" vertex="1">
                    <mxGeometry x="665" y="260" width="200" height="90" as="geometry"/>
                </mxCell>
                <mxCell id="59" value="struct list_elem donorelem" style="rounded=1;whiteSpace=wrap;html=1;arcSize=20;fillColor=#1ba1e2;strokeColor=#006EAF;shadow=1;labelBackgroundColor=none;fontColor=#ffffff;" parent="1" vertex="1">
                    <mxGeometry x="670" y="300" width="190" height="30" as="geometry"/>
                </mxCell>
                <mxCell id="62" value="..." style="text;html=1;strokeColor=none;fillColor=none;align=center;verticalAlign=middle;whiteSpace=wrap;rounded=0;shadow=1;labelBackgroundColor=none;fontColor=#000000;" parent="1" vertex="1">
                    <mxGeometry x="745" y="280" width="40" height="20" as="geometry"/>
                </mxCell>
                <mxCell id="63" value="..." style="text;html=1;strokeColor=none;fillColor=none;align=center;verticalAlign=middle;whiteSpace=wrap;rounded=0;shadow=1;labelBackgroundColor=none;fontColor=#000000;" parent="1" vertex="1">
                    <mxGeometry x="745" y="280" width="40" height="20" as="geometry"/>
                </mxCell>
                <mxCell id="64" value="..." style="text;html=1;strokeColor=none;fillColor=none;align=center;verticalAlign=middle;whiteSpace=wrap;rounded=0;shadow=1;labelBackgroundColor=none;fontColor=#000000;" parent="1" vertex="1">
                    <mxGeometry x="745" y="325" width="40" height="20" as="geometry"/>
                </mxCell>
                <mxCell id="78" style="edgeStyle=orthogonalEdgeStyle;rounded=1;orthogonalLoop=1;jettySize=auto;html=1;fontColor=#000000;endArrow=open;endFill=0;endSize=20;entryX=1;entryY=0.5;entryDx=0;entryDy=0;exitX=1;exitY=0.75;exitDx=0;exitDy=0;" parent="1" source="59" target="79" edge="1">
                    <mxGeometry relative="1" as="geometry">
                        <Array as="points">
                            <mxPoint x="865" y="323"/>
                            <mxPoint x="895" y="323"/>
                            <mxPoint x="895" y="225"/>
                        </Array>
                        <mxPoint x="915" y="340" as="sourcePoint"/>
                        <mxPoint x="995" y="250" as="targetPoint"/>
                    </mxGeometry>
                </mxCell>
                <mxCell id="96" value="struct thread" style="rounded=1;whiteSpace=wrap;html=1;arcSize=11;verticalAlign=top;fillColor=#f0a30a;strokeColor=#BD7000;fontColor=#000000;shadow=1;" parent="1" vertex="1">
                    <mxGeometry x="675" y="440" width="200" height="90" as="geometry"/>
                </mxCell>
                <mxCell id="97" value="struct list_elem donorelem" style="rounded=1;whiteSpace=wrap;html=1;arcSize=20;fillColor=#fa6800;strokeColor=#C73500;shadow=1;labelBackgroundColor=none;fontColor=#000000;" parent="1" vertex="1">
                    <mxGeometry x="680" y="480" width="190" height="30" as="geometry"/>
                </mxCell>
                <mxCell id="98" value="..." style="text;html=1;strokeColor=none;fillColor=none;align=center;verticalAlign=middle;whiteSpace=wrap;rounded=0;shadow=1;labelBackgroundColor=none;fontColor=#000000;" parent="1" vertex="1">
                    <mxGeometry x="755" y="460" width="40" height="20" as="geometry"/>
                </mxCell>
                <mxCell id="99" value="..." style="text;html=1;strokeColor=none;fillColor=none;align=center;verticalAlign=middle;whiteSpace=wrap;rounded=0;shadow=1;labelBackgroundColor=none;fontColor=#000000;" parent="1" vertex="1">
                    <mxGeometry x="755" y="460" width="40" height="20" as="geometry"/>
                </mxCell>
                <mxCell id="100" value="..." style="text;html=1;strokeColor=none;fillColor=none;align=center;verticalAlign=middle;whiteSpace=wrap;rounded=0;shadow=1;labelBackgroundColor=none;fontColor=#000000;" parent="1" vertex="1">
                    <mxGeometry x="755" y="505" width="40" height="20" as="geometry"/>
                </mxCell>
                <mxCell id="125" style="edgeStyle=orthogonalEdgeStyle;rounded=1;orthogonalLoop=1;jettySize=auto;html=1;exitX=1;exitY=0.75;exitDx=0;exitDy=0;fontColor=#000000;endArrow=open;endFill=0;endSize=20;entryX=1;entryY=0.5;entryDx=0;entryDy=0;" parent="1" source="97" target="110" edge="1">
                    <mxGeometry relative="1" as="geometry">
                        <Array as="points">
                            <mxPoint x="895" y="503"/>
                            <mxPoint x="895" y="375"/>
                        </Array>
                        <mxPoint x="880" y="512.5" as="sourcePoint"/>
                        <mxPoint x="935.6666666666665" y="400" as="targetPoint"/>
                    </mxGeometry>
                </mxCell>
            </root>
        </mxGraphModel>
    </diagram>
</mxfile>